<svg width="60" height="60" viewBox="0 0 60 60" fill="none" xmlns="http://www.w3.org/2000/svg">
<path d="M30 28.75C35.5228 28.75 40 24.2728 40 18.75C40 13.2272 35.5228 8.75 30 8.75C24.4772 8.75 20 13.2272 20 18.75C20 24.2728 24.4772 28.75 30 28.75Z" stroke="#14181F" stroke-width="4" stroke-linecap="round" stroke-linejoin="round"/>
<path d="M30 28.75C35.5228 28.75 40 24.2728 40 18.75C40 13.2272 35.5228 8.75 30 8.75C24.4772 8.75 20 13.2272 20 18.75C20 24.2728 24.4772 28.75 30 28.75Z" stroke="url(#paint0_linear_1143_4046)" stroke-width="4" stroke-linecap="round" stroke-linejoin="round"/>
<path d="M17.5 51.25C23.0228 51.25 27.5 46.7728 27.5 41.25C27.5 35.7272 23.0228 31.25 17.5 31.25C11.9772 31.25 7.5 35.7272 7.5 41.25C7.5 46.7728 11.9772 51.25 17.5 51.25Z" stroke="#14181F" stroke-width="4" stroke-linecap="round" stroke-linejoin="round"/>
<path d="M17.5 51.25C23.0228 51.25 27.5 46.7728 27.5 41.25C27.5 35.7272 23.0228 31.25 17.5 31.25C11.9772 31.25 7.5 35.7272 7.5 41.25C7.5 46.7728 11.9772 51.25 17.5 51.25Z" stroke="url(#paint1_linear_1143_4046)" stroke-width="4" stroke-linecap="round" stroke-linejoin="round"/>
<path d="M42.5 51.25C48.0228 51.25 52.5 46.7728 52.5 41.25C52.5 35.7272 48.0228 31.25 42.5 31.25C36.9772 31.25 32.5 35.7272 32.5 41.25C32.5 46.7728 36.9772 51.25 42.5 51.25Z" stroke="#14181F" stroke-width="4" stroke-linecap="round" stroke-linejoin="round"/>
<path d="M42.5 51.25C48.0228 51.25 52.5 46.7728 52.5 41.25C52.5 35.7272 48.0228 31.25 42.5 31.25C36.9772 31.25 32.5 35.7272 32.5 41.25C32.5 46.7728 36.9772 51.25 42.5 51.25Z" stroke="url(#paint2_linear_1143_4046)" stroke-width="4" stroke-linecap="round" stroke-linejoin="round"/>
<defs>
<linearGradient id="paint0_linear_1143_4046" x1="44.4956" y1="17.75" x2="16.4091" y2="17.75" gradientUnits="userSpaceOnUse">
<stop stop-color="#00D1FF"/>
<stop offset="1" stop-color="#306FE0"/>
</linearGradient>
<linearGradient id="paint1_linear_1143_4046" x1="31.9956" y1="40.25" x2="3.90909" y2="40.25" gradientUnits="userSpaceOnUse">
<stop stop-color="#00D1FF"/>
<stop offset="1" stop-color="#306FE0"/>
</linearGradient>
<linearGradient id="paint2_linear_1143_4046" x1="56.9956" y1="40.25" x2="28.9091" y2="40.25" gradientUnits="userSpaceOnUse">
<stop stop-color="#00D1FF"/>
<stop offset="1" stop-color="#306FE0"/>
</linearGradient>
</defs>
</svg>
