<svg width="50" height="54" viewBox="0 0 50 54" fill="none" xmlns="http://www.w3.org/2000/svg">
<path d="M33.75 13.25L16.25 23.25M16.25 30.75L33.75 40.75M47.5 44.5C47.5 48.6421 44.1421 52 40 52C35.8579 52 32.5 48.6421 32.5 44.5C32.5 40.3579 35.8579 37 40 37C44.1421 37 47.5 40.3579 47.5 44.5ZM47.5 9.5C47.5 13.6421 44.1421 17 40 17C35.8579 17 32.5 13.6421 32.5 9.5C32.5 5.35786 35.8579 2 40 2C44.1421 2 47.5 5.35786 47.5 9.5ZM17.5 27C17.5 31.1421 14.1421 34.5 10 34.5C5.85786 34.5 2.5 31.1421 2.5 27C2.5 22.8579 5.85786 19.5 10 19.5C14.1421 19.5 17.5 22.8579 17.5 27Z" stroke="#14181F" stroke-width="4" stroke-linejoin="round"/>
<path d="M33.75 13.25L16.25 23.25M16.25 30.75L33.75 40.75M47.5 44.5C47.5 48.6421 44.1421 52 40 52C35.8579 52 32.5 48.6421 32.5 44.5C32.5 40.3579 35.8579 37 40 37C44.1421 37 47.5 40.3579 47.5 44.5ZM47.5 9.5C47.5 13.6421 44.1421 17 40 17C35.8579 17 32.5 13.6421 32.5 9.5C32.5 5.35786 35.8579 2 40 2C44.1421 2 47.5 5.35786 47.5 9.5ZM17.5 27C17.5 31.1421 14.1421 34.5 10 34.5C5.85786 34.5 2.5 31.1421 2.5 27C2.5 22.8579 5.85786 19.5 10 19.5C14.1421 19.5 17.5 22.8579 17.5 27Z" stroke="url(#paint0_linear_1143_4081)" stroke-width="4" stroke-linejoin="round"/>
<defs>
<linearGradient id="paint0_linear_1143_4081" x1="57.6151" y1="24.4999" x2="-5.57955" y2="24.4999" gradientUnits="userSpaceOnUse">
<stop stop-color="#00D1FF"/>
<stop offset="1" stop-color="#306FE0"/>
</linearGradient>
</defs>
</svg>
