<svg width="44" height="44" viewBox="0 0 44 44" fill="none" xmlns="http://www.w3.org/2000/svg">
<path d="M2 24.5L25.75 24.5M2 24.5L12 35.75M2 24.5L12 13.25M25.75 24.5L38.25 2M25.75 24.5L38.25 42M38.25 2L23.25 4.5M38.25 2L42 15.75M38.25 42L42 28.25M38.25 42L23.25 40.75" stroke="black" stroke-width="4" stroke-linecap="round" stroke-linejoin="round"/>
<path d="M2 24.5L25.75 24.5M2 24.5L12 35.75M2 24.5L12 13.25M25.75 24.5L38.25 2M25.75 24.5L38.25 42M38.25 2L23.25 4.5M38.25 2L42 15.75M38.25 42L42 28.25M38.25 42L23.25 40.75" stroke="url(#paint0_linear_1366_4319)" stroke-width="4" stroke-linecap="round" stroke-linejoin="round"/>
<defs>
<linearGradient id="paint0_linear_1366_4319" x1="24" y1="-6.99117" x2="24" y2="49.1818" gradientUnits="userSpaceOnUse">
<stop stop-color="#00D1FF"/>
<stop offset="1" stop-color="#306FE0"/>
</linearGradient>
</defs>
</svg>
