<svg width="60" height="60" viewBox="0 0 60 60" fill="none" xmlns="http://www.w3.org/2000/svg">
<path d="M52.5 22.5V37.5" stroke="black" stroke-width="4" stroke-linecap="round" stroke-linejoin="round"/>
<path d="M52.5 22.5V37.5" stroke="url(#paint0_linear_1143_4032)" stroke-width="4" stroke-linecap="round" stroke-linejoin="round"/>
<path d="M7.5 37.5001V22.5" stroke="black" stroke-width="4" stroke-linecap="round" stroke-linejoin="round"/>
<path d="M7.5 37.5001V22.5" stroke="url(#paint1_linear_1143_4032)" stroke-width="4" stroke-linecap="round" stroke-linejoin="round"/>
<path d="M30 52.5V37.5" stroke="black" stroke-width="4" stroke-linecap="round" stroke-linejoin="round"/>
<path d="M30 52.5V37.5" stroke="url(#paint2_linear_1143_4032)" stroke-width="4" stroke-linecap="round" stroke-linejoin="round"/>
<path d="M30 7.5V22.5" stroke="black" stroke-width="4" stroke-linecap="round" stroke-linejoin="round"/>
<path d="M30 7.5V22.5" stroke="url(#paint3_linear_1143_4032)" stroke-width="4" stroke-linecap="round" stroke-linejoin="round"/>
<path d="M30 37.5L7.5 22.5L30 7.5L52.5 22.5L30 37.5Z" stroke="black" stroke-width="4" stroke-linecap="round" stroke-linejoin="round"/>
<path d="M30 37.5L7.5 22.5L30 7.5L52.5 22.5L30 37.5Z" stroke="url(#paint4_linear_1143_4032)" stroke-width="4" stroke-linecap="round" stroke-linejoin="round"/>
<path d="M30 52.5L7.5 37.5L30 22.5L52.5 37.5L30 52.5Z" stroke="black" stroke-width="4" stroke-linecap="round" stroke-linejoin="round"/>
<path d="M30 52.5L7.5 37.5L30 22.5L52.5 37.5L30 52.5Z" stroke="url(#paint5_linear_1143_4032)" stroke-width="4" stroke-linecap="round" stroke-linejoin="round"/>
<defs>
<linearGradient id="paint0_linear_1143_4032" x1="53.7248" y1="29.25" x2="52.3205" y2="29.25" gradientUnits="userSpaceOnUse">
<stop stop-color="#00D1FF"/>
<stop offset="1" stop-color="#306FE0"/>
</linearGradient>
<linearGradient id="paint1_linear_1143_4032" x1="8.72478" y1="29.25" x2="7.32045" y2="29.25" gradientUnits="userSpaceOnUse">
<stop stop-color="#00D1FF"/>
<stop offset="1" stop-color="#306FE0"/>
</linearGradient>
<linearGradient id="paint2_linear_1143_4032" x1="31.2248" y1="44.25" x2="29.8205" y2="44.25" gradientUnits="userSpaceOnUse">
<stop stop-color="#00D1FF"/>
<stop offset="1" stop-color="#306FE0"/>
</linearGradient>
<linearGradient id="paint3_linear_1143_4032" x1="31.2248" y1="14.25" x2="29.8205" y2="14.25" gradientUnits="userSpaceOnUse">
<stop stop-color="#00D1FF"/>
<stop offset="1" stop-color="#306FE0"/>
</linearGradient>
<linearGradient id="paint4_linear_1143_4032" x1="62.6151" y1="21" x2="-0.579548" y2="21" gradientUnits="userSpaceOnUse">
<stop stop-color="#00D1FF"/>
<stop offset="1" stop-color="#306FE0"/>
</linearGradient>
<linearGradient id="paint5_linear_1143_4032" x1="62.6151" y1="36" x2="-0.579548" y2="36" gradientUnits="userSpaceOnUse">
<stop stop-color="#00D1FF"/>
<stop offset="1" stop-color="#306FE0"/>
</linearGradient>
</defs>
</svg>
