<svg width="48" height="48" viewBox="0 0 48 48" fill="none" xmlns="http://www.w3.org/2000/svg">
<path d="M46.5 24C46.5 36.4264 36.4264 46.5 24 46.5C11.5736 46.5 1.49999 36.4264 1.5 24C1.5 11.5736 11.5736 1.5 24 1.5C36.4264 1.5 46.5 11.5736 46.5 24Z" fill="#032EBC"/>
<path d="M46.5 24C46.5 36.4264 36.4264 46.5 24 46.5C11.5736 46.5 1.49999 36.4264 1.5 24C1.5 11.5736 11.5736 1.5 24 1.5C36.4264 1.5 46.5 11.5736 46.5 24Z" fill="#001471"/>
<path d="M26.5 31.5L19 24L26.5 16.5M24 46.5C36.4264 46.5 46.5 36.4264 46.5 24C46.5 11.5736 36.4264 1.5 24 1.5C11.5736 1.5 1.5 11.5736 1.49999 24C1.49999 36.4264 11.5736 46.5 24 46.5Z" stroke="white" stroke-width="2" stroke-linecap="round" stroke-linejoin="round"/>
</svg>
