<svg width="60" height="60" viewBox="0 0 60 60" fill="none" xmlns="http://www.w3.org/2000/svg">
<path d="M37.5 47.5C37.5 41.9772 30.7843 37.5 22.5 37.5C14.2157 37.5 7.5 41.9772 7.5 47.5M42.0703 12.9291C42.9989 13.8577 43.7355 14.9601 44.238 16.1733C44.7406 17.3866 44.9995 18.6867 44.9995 19.9999C44.9995 21.3131 44.7408 22.6136 44.2383 23.8268C43.7357 25.0401 42.9989 26.1426 42.0703 27.0711M47.5 7.5C49.1415 9.14152 50.4436 11.0903 51.332 13.235C52.2204 15.3798 52.6774 17.6783 52.6774 19.9998C52.6774 22.3213 52.2202 24.6202 51.3318 26.7649C50.4434 28.9097 49.1415 30.8587 47.5 32.5002M22.5 30C16.9772 30 12.5 25.5228 12.5 20C12.5 14.4772 16.9772 10 22.5 10C28.0228 10 32.5 14.4772 32.5 20C32.5 25.5228 28.0228 30 22.5 30Z" stroke="#14181F" stroke-width="4" stroke-linecap="round" stroke-linejoin="round"/>
<path d="M37.5 47.5C37.5 41.9772 30.7843 37.5 22.5 37.5C14.2157 37.5 7.5 41.9772 7.5 47.5M42.0703 12.9291C42.9989 13.8577 43.7355 14.9601 44.238 16.1733C44.7406 17.3866 44.9995 18.6867 44.9995 19.9999C44.9995 21.3131 44.7408 22.6136 44.2383 23.8268C43.7357 25.0401 42.9989 26.1426 42.0703 27.0711M47.5 7.5C49.1415 9.14152 50.4436 11.0903 51.332 13.235C52.2204 15.3798 52.6774 17.6783 52.6774 19.9998C52.6774 22.3213 52.2202 24.6202 51.3318 26.7649C50.4434 28.9097 49.1415 30.8587 47.5 32.5002M22.5 30C16.9772 30 12.5 25.5228 12.5 20C12.5 14.4772 16.9772 10 22.5 10C28.0228 10 32.5 14.4772 32.5 20C32.5 25.5228 28.0228 30 22.5 30Z" stroke="url(#paint0_linear_1159_4727)" stroke-width="4" stroke-linecap="round" stroke-linejoin="round"/>
<defs>
<linearGradient id="paint0_linear_1159_4727" x1="62.8324" y1="25.5" x2="-0.611402" y2="25.5" gradientUnits="userSpaceOnUse">
<stop stop-color="#00D1FF"/>
<stop offset="1" stop-color="#306FE0"/>
</linearGradient>
</defs>
</svg>
