<svg width="54" height="52" viewBox="0 0 54 52" fill="none" xmlns="http://www.w3.org/2000/svg">
<path d="M47.8749 18.3075L46.9594 17.7982C46.8172 17.7191 46.7461 17.6794 46.6774 17.6383C45.9947 17.2293 45.4197 16.6632 44.9998 15.9872C44.9575 15.9192 44.9161 15.8489 44.8346 15.7079C44.7531 15.5668 44.7121 15.4959 44.6742 15.4251C44.2976 14.7218 44.0948 13.9387 44.0826 13.141C44.0815 13.0691 44.0828 12.9956 44.085 12.8638L44.1034 11.7731C44.1323 10.058 44.1465 9.20061 43.9064 8.43172C43.694 7.75151 43.3392 7.12441 42.8647 6.59273C42.3293 5.99277 41.587 5.56502 40.1059 4.71154L38.8637 3.99569C37.3816 3.14161 36.6403 2.71475 35.8534 2.5519C35.1573 2.40783 34.4385 2.41359 33.7449 2.56929C32.9629 2.74485 32.2316 3.18274 30.7714 4.05704L29.8757 4.59339C29.7358 4.67714 29.665 4.71892 29.5949 4.75789C28.8992 5.14469 28.1213 5.35992 27.3257 5.38546C27.2456 5.38803 27.164 5.38803 27.0009 5.38803H26.9988C26.8368 5.38803 26.7562 5.38803 26.6762 5.38546C25.8789 5.35981 25.0985 5.14361 24.4017 4.75522C24.3341 4.71751 24.2668 4.67714 24.1367 4.599L23.2247 4.05148C21.7557 3.16961 21.0206 2.72826 20.2345 2.5519C19.5381 2.39565 18.8157 2.39041 18.1171 2.53634C17.3273 2.70129 16.5838 3.13274 15.0975 3.99538L13.8783 4.70297C12.3997 5.56113 11.6615 5.99002 11.1281 6.5904C10.6562 7.12155 10.3027 7.74721 10.0916 8.42562C9.85297 9.19245 9.86643 10.0473 9.89519 11.7566L9.91305 12.8183C9.91575 12.979 9.91755 13.0595 9.91638 13.1385C9.90455 13.9379 9.701 14.7227 9.32322 15.4273C9.28585 15.4969 9.2456 15.5666 9.16521 15.7058C9.08475 15.8451 9.04457 15.9146 9.00285 15.9818C8.58104 16.6614 8.00235 17.2301 7.31533 17.6398C7.24738 17.6803 7.17761 17.7193 7.03689 17.7973L6.13298 18.2982C4.62927 19.1315 3.87724 19.5482 3.33025 20.1417C2.84631 20.6668 2.47988 21.2895 2.25673 21.9678C2.0048 22.7335 2.00675 23.5921 2.01065 25.307L2.01389 26.7343C2.01775 28.4321 2.01968 29.2832 2.27174 30.0425C2.49541 30.7163 2.86001 31.3345 3.34123 31.8564C3.88458 32.4457 4.6303 32.8605 6.11959 33.689L7.03274 34.197C7.17697 34.2773 7.25135 34.3186 7.32284 34.3617C8.00363 34.7716 8.57608 35.3381 8.99431 36.0138C9.03949 36.0868 9.08286 36.1626 9.16959 36.3141L9.19913 36.3657C9.26577 36.482 9.30342 36.5477 9.3382 36.6136C9.70488 37.3078 9.90303 38.0786 9.91642 38.8635C9.91786 38.9484 9.91652 39.0348 9.91361 39.2072L9.89634 40.2297C9.86743 41.9424 9.85296 42.7992 10.0928 43.5676C10.3052 44.2479 10.661 44.8748 11.1354 45.4065C11.6717 46.0076 12.414 46.436 13.9003 47.2925L15.1346 48.0037C16.6167 48.8578 17.3589 49.2847 18.1457 49.4475C18.8418 49.5916 19.5605 49.5857 20.2541 49.43C21.0364 49.2543 21.768 48.8163 23.2293 47.9413L24.1233 47.406C24.2632 47.3222 24.3336 47.2805 24.4037 47.2415C25.0994 46.8547 25.8769 46.6395 26.6725 46.6139C26.7527 46.6113 26.8343 46.6113 26.9974 46.6113C27.1608 46.6113 27.2437 46.6113 27.324 46.6139C28.1213 46.6396 28.9006 46.8556 29.5973 47.244C29.6676 47.2831 29.7379 47.3252 29.8781 47.4094L30.7683 47.9438L30.77 47.9448C32.2422 48.8287 32.9784 49.2706 33.7653 49.4472C34.4618 49.6035 35.1828 49.609 35.8815 49.4631C36.6713 49.2981 37.4152 48.8667 38.9015 48.004L40.1207 47.2965C41.5993 46.4383 42.3377 46.0093 42.8711 45.409C43.343 44.8778 43.6965 44.2522 43.9076 43.5738C44.1463 42.807 44.1325 41.9522 44.1037 40.2429L44.085 39.1278C44.0828 39.0016 44.0816 38.9309 44.0826 38.8611C44.0945 38.0617 44.2977 37.2767 44.6755 36.5722C44.7128 36.5025 44.7531 36.4328 44.8335 36.2937C44.9139 36.1544 44.9549 36.0847 44.9966 36.0175C45.4184 35.3378 45.9965 34.7694 46.6835 34.3598C46.7492 34.3206 46.8176 34.2827 46.9493 34.2098L47.867 33.7012C49.3709 32.8678 50.1223 32.4512 50.6693 31.8576C51.1532 31.3326 51.519 30.71 51.7421 30.0317C51.9944 29.2649 51.9933 28.4052 51.9894 26.6858L51.9863 25.2805C51.9824 23.5726 51.9803 22.7184 51.7275 21.9568C51.5038 21.2831 51.1389 20.6648 50.6576 20.1429C50.1137 19.553 49.3675 19.1378 47.8749 18.3075Z" stroke="#14181F" stroke-width="4" stroke-linecap="round" stroke-linejoin="round"/>
<path d="M47.8749 18.3075L46.9594 17.7982C46.8172 17.7191 46.7461 17.6794 46.6774 17.6383C45.9947 17.2293 45.4197 16.6632 44.9998 15.9872C44.9575 15.9192 44.9161 15.8489 44.8346 15.7079C44.7531 15.5668 44.7121 15.4959 44.6742 15.4251C44.2976 14.7218 44.0948 13.9387 44.0826 13.141C44.0815 13.0691 44.0828 12.9956 44.085 12.8638L44.1034 11.7731C44.1323 10.058 44.1465 9.20061 43.9064 8.43172C43.694 7.75151 43.3392 7.12441 42.8647 6.59273C42.3293 5.99277 41.587 5.56502 40.1059 4.71154L38.8637 3.99569C37.3816 3.14161 36.6403 2.71475 35.8534 2.5519C35.1573 2.40783 34.4385 2.41359 33.7449 2.56929C32.9629 2.74485 32.2316 3.18274 30.7714 4.05704L29.8757 4.59339C29.7358 4.67714 29.665 4.71892 29.5949 4.75789C28.8992 5.14469 28.1213 5.35992 27.3257 5.38546C27.2456 5.38803 27.164 5.38803 27.0009 5.38803H26.9988C26.8368 5.38803 26.7562 5.38803 26.6762 5.38546C25.8789 5.35981 25.0985 5.14361 24.4017 4.75522C24.3341 4.71751 24.2668 4.67714 24.1367 4.599L23.2247 4.05148C21.7557 3.16961 21.0206 2.72826 20.2345 2.5519C19.5381 2.39565 18.8157 2.39041 18.1171 2.53634C17.3273 2.70129 16.5838 3.13274 15.0975 3.99538L13.8783 4.70297C12.3997 5.56113 11.6615 5.99002 11.1281 6.5904C10.6562 7.12155 10.3027 7.74721 10.0916 8.42562C9.85297 9.19245 9.86643 10.0473 9.89519 11.7566L9.91305 12.8183C9.91575 12.979 9.91755 13.0595 9.91638 13.1385C9.90455 13.9379 9.701 14.7227 9.32322 15.4273C9.28585 15.4969 9.2456 15.5666 9.16521 15.7058C9.08475 15.8451 9.04457 15.9146 9.00285 15.9818C8.58104 16.6614 8.00235 17.2301 7.31533 17.6398C7.24738 17.6803 7.17761 17.7193 7.03689 17.7973L6.13298 18.2982C4.62927 19.1315 3.87724 19.5482 3.33025 20.1417C2.84631 20.6668 2.47988 21.2895 2.25673 21.9678C2.0048 22.7335 2.00675 23.5921 2.01065 25.307L2.01389 26.7343C2.01775 28.4321 2.01968 29.2832 2.27174 30.0425C2.49541 30.7163 2.86001 31.3345 3.34123 31.8564C3.88458 32.4457 4.6303 32.8605 6.11959 33.689L7.03274 34.197C7.17697 34.2773 7.25135 34.3186 7.32284 34.3617C8.00363 34.7716 8.57608 35.3381 8.99431 36.0138C9.03949 36.0868 9.08286 36.1626 9.16959 36.3141L9.19913 36.3657C9.26577 36.482 9.30342 36.5477 9.3382 36.6136C9.70488 37.3078 9.90303 38.0786 9.91642 38.8635C9.91786 38.9484 9.91652 39.0348 9.91361 39.2072L9.89634 40.2297C9.86743 41.9424 9.85296 42.7992 10.0928 43.5676C10.3052 44.2479 10.661 44.8748 11.1354 45.4065C11.6717 46.0076 12.414 46.436 13.9003 47.2925L15.1346 48.0037C16.6167 48.8578 17.3589 49.2847 18.1457 49.4475C18.8418 49.5916 19.5605 49.5857 20.2541 49.43C21.0364 49.2543 21.768 48.8163 23.2293 47.9413L24.1233 47.406C24.2632 47.3222 24.3336 47.2805 24.4037 47.2415C25.0994 46.8547 25.8769 46.6395 26.6725 46.6139C26.7527 46.6113 26.8343 46.6113 26.9974 46.6113C27.1608 46.6113 27.2437 46.6113 27.324 46.6139C28.1213 46.6396 28.9006 46.8556 29.5973 47.244C29.6676 47.2831 29.7379 47.3252 29.8781 47.4094L30.7683 47.9438L30.77 47.9448C32.2422 48.8287 32.9784 49.2706 33.7653 49.4472C34.4618 49.6035 35.1828 49.609 35.8815 49.4631C36.6713 49.2981 37.4152 48.8667 38.9015 48.004L40.1207 47.2965C41.5993 46.4383 42.3377 46.0093 42.8711 45.409C43.343 44.8778 43.6965 44.2522 43.9076 43.5738C44.1463 42.807 44.1325 41.9522 44.1037 40.2429L44.085 39.1278C44.0828 39.0016 44.0816 38.9309 44.0826 38.8611C44.0945 38.0617 44.2977 37.2767 44.6755 36.5722C44.7128 36.5025 44.7531 36.4328 44.8335 36.2937C44.9139 36.1544 44.9549 36.0847 44.9966 36.0175C45.4184 35.3378 45.9965 34.7694 46.6835 34.3598C46.7492 34.3206 46.8176 34.2827 46.9493 34.2098L47.867 33.7012C49.3709 32.8678 50.1223 32.4512 50.6693 31.8576C51.1532 31.3326 51.519 30.71 51.7421 30.0317C51.9944 29.2649 51.9933 28.4052 51.9894 26.6858L51.9863 25.2805C51.9824 23.5726 51.9803 22.7184 51.7275 21.9568C51.5038 21.2831 51.1389 20.6648 50.6576 20.1429C50.1137 19.553 49.3675 19.1378 47.8749 18.3075Z" stroke="url(#paint0_linear_1591_9276)" stroke-width="4" stroke-linecap="round" stroke-linejoin="round"/>
<path d="M37 26C37 31.5228 32.5228 36 27 36C21.4772 36 17 31.5228 17 26C17 20.4772 21.4772 16 27 16C32.5228 16 37 20.4772 37 26Z" stroke="#14181F" stroke-width="4" stroke-linecap="round" stroke-linejoin="round"/>
<path d="M37 26C37 31.5228 32.5228 36 27 36C21.4772 36 17 31.5228 17 26C17 20.4772 21.4772 16 27 16C32.5228 16 37 20.4772 37 26Z" stroke="url(#paint1_linear_1591_9276)" stroke-width="4" stroke-linecap="round" stroke-linejoin="round"/>
<defs>
<linearGradient id="paint0_linear_1591_9276" x1="41.4956" y1="25" x2="13.4091" y2="25" gradientUnits="userSpaceOnUse">
<stop stop-color="#00D1FF"/>
<stop offset="1" stop-color="#306FE0"/>
</linearGradient>
<linearGradient id="paint1_linear_1591_9276" x1="41.4956" y1="25" x2="13.4091" y2="25" gradientUnits="userSpaceOnUse">
<stop stop-color="#00D1FF"/>
<stop offset="1" stop-color="#306FE0"/>
</linearGradient>
</defs>
</svg>
