<svg width="70" height="70" viewBox="0 0 70 70" fill="none" xmlns="http://www.w3.org/2000/svg">
<path d="M16.0417 14.5837C15.2363 14.5837 14.5833 13.9307 14.5833 13.1253C14.5833 12.3199 15.2363 11.667 16.0417 11.667C16.8471 11.667 17.5 12.3199 17.5 13.1253C17.5 13.9307 16.8471 14.5837 16.0417 14.5837Z" fill="url(#paint0_linear_290_1484)"/>
<path d="M16.0417 14.5837C15.2363 14.5837 14.5833 13.9307 14.5833 13.1253C14.5833 12.3199 15.2363 11.667 16.0417 11.667C16.8471 11.667 17.5 12.3199 17.5 13.1253C17.5 13.9307 16.8471 14.5837 16.0417 14.5837Z" stroke="black" stroke-width="1.5" stroke-linecap="round" stroke-linejoin="round"/>
<path d="M16.0417 14.5837C15.2363 14.5837 14.5833 13.9307 14.5833 13.1253C14.5833 12.3199 15.2363 11.667 16.0417 11.667C16.8471 11.667 17.5 12.3199 17.5 13.1253C17.5 13.9307 16.8471 14.5837 16.0417 14.5837Z" stroke="url(#paint1_linear_290_1484)" stroke-width="1.5" stroke-linecap="round" stroke-linejoin="round"/>
<path d="M16.0417 29.1667C15.2363 29.1667 14.5833 28.5137 14.5833 27.7083C14.5833 26.9029 15.2363 26.25 16.0417 26.25C16.8471 26.25 17.5 26.9029 17.5 27.7083C17.5 28.5137 16.8471 29.1667 16.0417 29.1667Z" fill="url(#paint2_linear_290_1484)"/>
<path d="M16.0417 29.1667C15.2363 29.1667 14.5833 28.5137 14.5833 27.7083C14.5833 26.9029 15.2363 26.25 16.0417 26.25C16.8471 26.25 17.5 26.9029 17.5 27.7083C17.5 28.5137 16.8471 29.1667 16.0417 29.1667Z" stroke="black" stroke-width="1.5" stroke-linecap="round" stroke-linejoin="round"/>
<path d="M16.0417 29.1667C15.2363 29.1667 14.5833 28.5137 14.5833 27.7083C14.5833 26.9029 15.2363 26.25 16.0417 26.25C16.8471 26.25 17.5 26.9029 17.5 27.7083C17.5 28.5137 16.8471 29.1667 16.0417 29.1667Z" stroke="url(#paint3_linear_290_1484)" stroke-width="1.5" stroke-linecap="round" stroke-linejoin="round"/>
<path d="M16.0417 43.7497C15.2363 43.7497 14.5833 43.0968 14.5833 42.2913C14.5833 41.4859 15.2363 40.833 16.0417 40.833C16.8471 40.833 17.5 41.4859 17.5 42.2913C17.5 43.0968 16.8471 43.7497 16.0417 43.7497Z" fill="url(#paint4_linear_290_1484)"/>
<path d="M16.0417 43.7497C15.2363 43.7497 14.5833 43.0968 14.5833 42.2913C14.5833 41.4859 15.2363 40.833 16.0417 40.833C16.8471 40.833 17.5 41.4859 17.5 42.2913C17.5 43.0968 16.8471 43.7497 16.0417 43.7497Z" stroke="black" stroke-width="1.5" stroke-linecap="round" stroke-linejoin="round"/>
<path d="M16.0417 43.7497C15.2363 43.7497 14.5833 43.0968 14.5833 42.2913C14.5833 41.4859 15.2363 40.833 16.0417 40.833C16.8471 40.833 17.5 41.4859 17.5 42.2913C17.5 43.0968 16.8471 43.7497 16.0417 43.7497Z" stroke="url(#paint5_linear_290_1484)" stroke-width="1.5" stroke-linecap="round" stroke-linejoin="round"/>
<path d="M35.0002 14.5837C34.1947 14.5837 33.5418 13.9307 33.5418 13.1253C33.5418 12.3199 34.1947 11.667 35.0002 11.667C35.8056 11.667 36.4585 12.3199 36.4585 13.1253C36.4585 13.9307 35.8056 14.5837 35.0002 14.5837Z" fill="url(#paint6_linear_290_1484)"/>
<path d="M35.0002 14.5837C34.1947 14.5837 33.5418 13.9307 33.5418 13.1253C33.5418 12.3199 34.1947 11.667 35.0002 11.667C35.8056 11.667 36.4585 12.3199 36.4585 13.1253C36.4585 13.9307 35.8056 14.5837 35.0002 14.5837Z" stroke="black" stroke-width="1.5" stroke-linecap="round" stroke-linejoin="round"/>
<path d="M35.0002 14.5837C34.1947 14.5837 33.5418 13.9307 33.5418 13.1253C33.5418 12.3199 34.1947 11.667 35.0002 11.667C35.8056 11.667 36.4585 12.3199 36.4585 13.1253C36.4585 13.9307 35.8056 14.5837 35.0002 14.5837Z" stroke="url(#paint7_linear_290_1484)" stroke-width="1.5" stroke-linecap="round" stroke-linejoin="round"/>
<path d="M35.0002 29.1667C34.1947 29.1667 33.5418 28.5137 33.5418 27.7083C33.5418 26.9029 34.1947 26.25 35.0002 26.25C35.8056 26.25 36.4585 26.9029 36.4585 27.7083C36.4585 28.5137 35.8056 29.1667 35.0002 29.1667Z" fill="url(#paint8_linear_290_1484)"/>
<path d="M35.0002 29.1667C34.1947 29.1667 33.5418 28.5137 33.5418 27.7083C33.5418 26.9029 34.1947 26.25 35.0002 26.25C35.8056 26.25 36.4585 26.9029 36.4585 27.7083C36.4585 28.5137 35.8056 29.1667 35.0002 29.1667Z" stroke="black" stroke-width="1.5" stroke-linecap="round" stroke-linejoin="round"/>
<path d="M35.0002 29.1667C34.1947 29.1667 33.5418 28.5137 33.5418 27.7083C33.5418 26.9029 34.1947 26.25 35.0002 26.25C35.8056 26.25 36.4585 26.9029 36.4585 27.7083C36.4585 28.5137 35.8056 29.1667 35.0002 29.1667Z" stroke="url(#paint9_linear_290_1484)" stroke-width="1.5" stroke-linecap="round" stroke-linejoin="round"/>
<path d="M35.0002 43.7497C34.1947 43.7497 33.5418 43.0968 33.5418 42.2913C33.5418 41.4859 34.1947 40.833 35.0002 40.833C35.8056 40.833 36.4585 41.4859 36.4585 42.2913C36.4585 43.0968 35.8056 43.7497 35.0002 43.7497Z" fill="url(#paint10_linear_290_1484)"/>
<path d="M35.0002 43.7497C34.1947 43.7497 33.5418 43.0968 33.5418 42.2913C33.5418 41.4859 34.1947 40.833 35.0002 40.833C35.8056 40.833 36.4585 41.4859 36.4585 42.2913C36.4585 43.0968 35.8056 43.7497 35.0002 43.7497Z" stroke="black" stroke-width="1.5" stroke-linecap="round" stroke-linejoin="round"/>
<path d="M35.0002 43.7497C34.1947 43.7497 33.5418 43.0968 33.5418 42.2913C33.5418 41.4859 34.1947 40.833 35.0002 40.833C35.8056 40.833 36.4585 41.4859 36.4585 42.2913C36.4585 43.0968 35.8056 43.7497 35.0002 43.7497Z" stroke="url(#paint11_linear_290_1484)" stroke-width="1.5" stroke-linecap="round" stroke-linejoin="round"/>
<path d="M35.0002 58.3337C34.1947 58.3337 33.5418 57.6807 33.5418 56.8753C33.5418 56.0699 34.1947 55.417 35.0002 55.417C35.8056 55.417 36.4585 56.0699 36.4585 56.8753C36.4585 57.6807 35.8056 58.3337 35.0002 58.3337Z" fill="url(#paint12_linear_290_1484)"/>
<path d="M35.0002 58.3337C34.1947 58.3337 33.5418 57.6807 33.5418 56.8753C33.5418 56.0699 34.1947 55.417 35.0002 55.417C35.8056 55.417 36.4585 56.0699 36.4585 56.8753C36.4585 57.6807 35.8056 58.3337 35.0002 58.3337Z" stroke="black" stroke-width="1.5" stroke-linecap="round" stroke-linejoin="round"/>
<path d="M35.0002 58.3337C34.1947 58.3337 33.5418 57.6807 33.5418 56.8753C33.5418 56.0699 34.1947 55.417 35.0002 55.417C35.8056 55.417 36.4585 56.0699 36.4585 56.8753C36.4585 57.6807 35.8056 58.3337 35.0002 58.3337Z" stroke="url(#paint13_linear_290_1484)" stroke-width="1.5" stroke-linecap="round" stroke-linejoin="round"/>
<path d="M53.9582 14.5837C53.1528 14.5837 52.4998 13.9307 52.4998 13.1253C52.4998 12.3199 53.1528 11.667 53.9582 11.667C54.7636 11.667 55.4165 12.3199 55.4165 13.1253C55.4165 13.9307 54.7636 14.5837 53.9582 14.5837Z" fill="url(#paint14_linear_290_1484)"/>
<path d="M53.9582 14.5837C53.1528 14.5837 52.4998 13.9307 52.4998 13.1253C52.4998 12.3199 53.1528 11.667 53.9582 11.667C54.7636 11.667 55.4165 12.3199 55.4165 13.1253C55.4165 13.9307 54.7636 14.5837 53.9582 14.5837Z" stroke="black" stroke-width="1.5" stroke-linecap="round" stroke-linejoin="round"/>
<path d="M53.9582 14.5837C53.1528 14.5837 52.4998 13.9307 52.4998 13.1253C52.4998 12.3199 53.1528 11.667 53.9582 11.667C54.7636 11.667 55.4165 12.3199 55.4165 13.1253C55.4165 13.9307 54.7636 14.5837 53.9582 14.5837Z" stroke="url(#paint15_linear_290_1484)" stroke-width="1.5" stroke-linecap="round" stroke-linejoin="round"/>
<path d="M53.9582 29.1667C53.1528 29.1667 52.4998 28.5137 52.4998 27.7083C52.4998 26.9029 53.1528 26.25 53.9582 26.25C54.7636 26.25 55.4165 26.9029 55.4165 27.7083C55.4165 28.5137 54.7636 29.1667 53.9582 29.1667Z" fill="url(#paint16_linear_290_1484)"/>
<path d="M53.9582 29.1667C53.1528 29.1667 52.4998 28.5137 52.4998 27.7083C52.4998 26.9029 53.1528 26.25 53.9582 26.25C54.7636 26.25 55.4165 26.9029 55.4165 27.7083C55.4165 28.5137 54.7636 29.1667 53.9582 29.1667Z" stroke="black" stroke-width="1.5" stroke-linecap="round" stroke-linejoin="round"/>
<path d="M53.9582 29.1667C53.1528 29.1667 52.4998 28.5137 52.4998 27.7083C52.4998 26.9029 53.1528 26.25 53.9582 26.25C54.7636 26.25 55.4165 26.9029 55.4165 27.7083C55.4165 28.5137 54.7636 29.1667 53.9582 29.1667Z" stroke="url(#paint17_linear_290_1484)" stroke-width="1.5" stroke-linecap="round" stroke-linejoin="round"/>
<path d="M53.9582 43.7497C53.1528 43.7497 52.4998 43.0968 52.4998 42.2913C52.4998 41.4859 53.1528 40.833 53.9582 40.833C54.7636 40.833 55.4165 41.4859 55.4165 42.2913C55.4165 43.0968 54.7636 43.7497 53.9582 43.7497Z" fill="url(#paint18_linear_290_1484)"/>
<path d="M53.9582 43.7497C53.1528 43.7497 52.4998 43.0968 52.4998 42.2913C52.4998 41.4859 53.1528 40.833 53.9582 40.833C54.7636 40.833 55.4165 41.4859 55.4165 42.2913C55.4165 43.0968 54.7636 43.7497 53.9582 43.7497Z" stroke="black" stroke-width="1.5" stroke-linecap="round" stroke-linejoin="round"/>
<path d="M53.9582 43.7497C53.1528 43.7497 52.4998 43.0968 52.4998 42.2913C52.4998 41.4859 53.1528 40.833 53.9582 40.833C54.7636 40.833 55.4165 41.4859 55.4165 42.2913C55.4165 43.0968 54.7636 43.7497 53.9582 43.7497Z" stroke="url(#paint19_linear_290_1484)" stroke-width="1.5" stroke-linecap="round" stroke-linejoin="round"/>
<defs>
<linearGradient id="paint0_linear_290_1484" x1="13.9277" y1="12.9795" x2="18.0237" y2="12.9795" gradientUnits="userSpaceOnUse">
<stop stop-color="#00D1FF"/>
<stop offset="1" stop-color="#306FE0"/>
</linearGradient>
<linearGradient id="paint1_linear_290_1484" x1="13.9277" y1="12.9795" x2="18.0237" y2="12.9795" gradientUnits="userSpaceOnUse">
<stop stop-color="#00D1FF"/>
<stop offset="1" stop-color="#306FE0"/>
</linearGradient>
<linearGradient id="paint2_linear_290_1484" x1="13.9277" y1="27.5625" x2="18.0237" y2="27.5625" gradientUnits="userSpaceOnUse">
<stop stop-color="#00D1FF"/>
<stop offset="1" stop-color="#306FE0"/>
</linearGradient>
<linearGradient id="paint3_linear_290_1484" x1="13.9277" y1="27.5625" x2="18.0237" y2="27.5625" gradientUnits="userSpaceOnUse">
<stop stop-color="#00D1FF"/>
<stop offset="1" stop-color="#306FE0"/>
</linearGradient>
<linearGradient id="paint4_linear_290_1484" x1="13.9277" y1="42.1455" x2="18.0237" y2="42.1455" gradientUnits="userSpaceOnUse">
<stop stop-color="#00D1FF"/>
<stop offset="1" stop-color="#306FE0"/>
</linearGradient>
<linearGradient id="paint5_linear_290_1484" x1="13.9277" y1="42.1455" x2="18.0237" y2="42.1455" gradientUnits="userSpaceOnUse">
<stop stop-color="#00D1FF"/>
<stop offset="1" stop-color="#306FE0"/>
</linearGradient>
<linearGradient id="paint6_linear_290_1484" x1="32.8862" y1="12.9795" x2="36.9822" y2="12.9795" gradientUnits="userSpaceOnUse">
<stop stop-color="#00D1FF"/>
<stop offset="1" stop-color="#306FE0"/>
</linearGradient>
<linearGradient id="paint7_linear_290_1484" x1="32.8862" y1="12.9795" x2="36.9822" y2="12.9795" gradientUnits="userSpaceOnUse">
<stop stop-color="#00D1FF"/>
<stop offset="1" stop-color="#306FE0"/>
</linearGradient>
<linearGradient id="paint8_linear_290_1484" x1="32.8862" y1="27.5625" x2="36.9822" y2="27.5625" gradientUnits="userSpaceOnUse">
<stop stop-color="#00D1FF"/>
<stop offset="1" stop-color="#306FE0"/>
</linearGradient>
<linearGradient id="paint9_linear_290_1484" x1="32.8862" y1="27.5625" x2="36.9822" y2="27.5625" gradientUnits="userSpaceOnUse">
<stop stop-color="#00D1FF"/>
<stop offset="1" stop-color="#306FE0"/>
</linearGradient>
<linearGradient id="paint10_linear_290_1484" x1="32.8862" y1="42.1455" x2="36.9822" y2="42.1455" gradientUnits="userSpaceOnUse">
<stop stop-color="#00D1FF"/>
<stop offset="1" stop-color="#306FE0"/>
</linearGradient>
<linearGradient id="paint11_linear_290_1484" x1="32.8862" y1="42.1455" x2="36.9822" y2="42.1455" gradientUnits="userSpaceOnUse">
<stop stop-color="#00D1FF"/>
<stop offset="1" stop-color="#306FE0"/>
</linearGradient>
<linearGradient id="paint12_linear_290_1484" x1="32.8862" y1="56.7295" x2="36.9822" y2="56.7295" gradientUnits="userSpaceOnUse">
<stop stop-color="#00D1FF"/>
<stop offset="1" stop-color="#306FE0"/>
</linearGradient>
<linearGradient id="paint13_linear_290_1484" x1="32.8862" y1="56.7295" x2="36.9822" y2="56.7295" gradientUnits="userSpaceOnUse">
<stop stop-color="#00D1FF"/>
<stop offset="1" stop-color="#306FE0"/>
</linearGradient>
<linearGradient id="paint14_linear_290_1484" x1="51.8442" y1="12.9795" x2="55.9402" y2="12.9795" gradientUnits="userSpaceOnUse">
<stop stop-color="#00D1FF"/>
<stop offset="1" stop-color="#306FE0"/>
</linearGradient>
<linearGradient id="paint15_linear_290_1484" x1="51.8442" y1="12.9795" x2="55.9402" y2="12.9795" gradientUnits="userSpaceOnUse">
<stop stop-color="#00D1FF"/>
<stop offset="1" stop-color="#306FE0"/>
</linearGradient>
<linearGradient id="paint16_linear_290_1484" x1="51.8442" y1="27.5625" x2="55.9402" y2="27.5625" gradientUnits="userSpaceOnUse">
<stop stop-color="#00D1FF"/>
<stop offset="1" stop-color="#306FE0"/>
</linearGradient>
<linearGradient id="paint17_linear_290_1484" x1="51.8442" y1="27.5625" x2="55.9402" y2="27.5625" gradientUnits="userSpaceOnUse">
<stop stop-color="#00D1FF"/>
<stop offset="1" stop-color="#306FE0"/>
</linearGradient>
<linearGradient id="paint18_linear_290_1484" x1="51.8442" y1="42.1455" x2="55.9402" y2="42.1455" gradientUnits="userSpaceOnUse">
<stop stop-color="#00D1FF"/>
<stop offset="1" stop-color="#306FE0"/>
</linearGradient>
<linearGradient id="paint19_linear_290_1484" x1="51.8442" y1="42.1455" x2="55.9402" y2="42.1455" gradientUnits="userSpaceOnUse">
<stop stop-color="#00D1FF"/>
<stop offset="1" stop-color="#306FE0"/>
</linearGradient>
</defs>
</svg>
