<svg width="60" height="60" viewBox="0 0 60 60" fill="none" xmlns="http://www.w3.org/2000/svg">
<path d="M22.5 42.5H37.5M22.5 35H37.5M47.499 22.5H36.499C35.0989 22.5 34.3995 22.5 33.8647 22.2275C33.3943 21.9878 33.0122 21.6054 32.7725 21.135C32.5 20.6003 32.5 19.9001 32.5 18.5V7.5M47.5 44.5V24.135C47.5 22.9762 47.5005 22.3968 47.3755 21.8483C47.2646 21.3619 47.0821 20.8947 46.833 20.4625C46.552 19.9751 46.1581 19.5499 45.3708 18.6997L37.3755 10.0647C36.5005 9.11971 36.0626 8.64719 35.542 8.30856C35.0805 8.00842 34.5716 7.7866 34.0379 7.65193C33.4357 7.5 32.793 7.5 31.5052 7.5H20.5005C17.7002 7.5 16.2991 7.5 15.2295 8.04497C14.2887 8.52433 13.5243 9.28929 13.045 10.2301C12.5 11.2997 12.5 12.6998 12.5 15.5V44.5C12.5 47.3003 12.5 48.7004 13.045 49.7699C13.5243 50.7107 14.2887 51.4756 15.2295 51.955C16.2991 52.4999 17.7002 52.5 20.5005 52.5H39.5005C42.3008 52.5 43.6999 52.4999 44.7695 51.955C45.7103 51.4756 46.4762 50.7107 46.9556 49.7699C47.5005 48.7004 47.5 47.3003 47.5 44.5Z" stroke="#14181F" stroke-width="4" stroke-linecap="round" stroke-linejoin="round"/>
<path d="M22.5 42.5H37.5M22.5 35H37.5M47.499 22.5H36.499C35.0989 22.5 34.3995 22.5 33.8647 22.2275C33.3943 21.9878 33.0122 21.6054 32.7725 21.135C32.5 20.6003 32.5 19.9001 32.5 18.5V7.5M47.5 44.5V24.135C47.5 22.9762 47.5005 22.3968 47.3755 21.8483C47.2646 21.3619 47.0821 20.8947 46.833 20.4625C46.552 19.9751 46.1581 19.5499 45.3708 18.6997L37.3755 10.0647C36.5005 9.11971 36.0626 8.64719 35.542 8.30856C35.0805 8.00842 34.5716 7.7866 34.0379 7.65193C33.4357 7.5 32.793 7.5 31.5052 7.5H20.5005C17.7002 7.5 16.2991 7.5 15.2295 8.04497C14.2887 8.52433 13.5243 9.28929 13.045 10.2301C12.5 11.2997 12.5 12.6998 12.5 15.5V44.5C12.5 47.3003 12.5 48.7004 13.045 49.7699C13.5243 50.7107 14.2887 51.4756 15.2295 51.955C16.2991 52.4999 17.7002 52.5 20.5005 52.5H39.5005C42.3008 52.5 43.6999 52.4999 44.7695 51.955C45.7103 51.4756 46.4762 50.7107 46.9556 49.7699C47.5005 48.7004 47.5 47.3003 47.5 44.5Z" stroke="url(#paint0_linear_290_1480)" stroke-width="4" stroke-linecap="round" stroke-linejoin="round"/>
<defs>
<linearGradient id="paint0_linear_290_1480" x1="55.3673" y1="27.75" x2="6.21591" y2="27.75" gradientUnits="userSpaceOnUse">
<stop stop-color="#00D1FF"/>
<stop offset="1" stop-color="#306FE0"/>
</linearGradient>
</defs>
</svg>
