<svg width="60" height="60" viewBox="0 0 60 60" fill="none" xmlns="http://www.w3.org/2000/svg">
<path d="M5 50V37C5 33.134 8.13401 30 12 30H22.5" stroke="white" stroke-width="5" stroke-linecap="round" stroke-linejoin="round"/>
<path d="M5 50V37C5 33.134 8.13401 30 12 30H22.5" stroke="url(#paint0_linear_1159_4705)" stroke-width="5" stroke-linecap="round" stroke-linejoin="round"/>
<path d="M41.0213 29.1237C41.8147 28.2525 43.1853 28.2525 43.9787 29.1237L46.1378 31.4944C46.5387 31.9347 47.115 32.1734 47.7098 32.1456L50.9129 31.9959C52.0899 31.9409 53.0591 32.9101 53.0041 34.0871L52.8544 37.2902C52.8266 37.885 53.0653 38.4613 53.5056 38.8622L55.8763 41.0213C56.7475 41.8147 56.7475 43.1853 55.8763 43.9787L53.5056 46.1378C53.0653 46.5387 52.8266 47.115 52.8544 47.7098L53.0041 50.9129C53.0591 52.0899 52.0899 53.0591 50.9129 53.0041L47.7098 52.8544C47.115 52.8266 46.5387 53.0653 46.1378 53.5056L43.9787 55.8763C43.1853 56.7475 41.8147 56.7475 41.0213 55.8763L38.8622 53.5056C38.4613 53.0653 37.885 52.8266 37.2902 52.8544L34.0871 53.0041C32.9101 53.0591 31.9409 52.0899 31.9959 50.9129L32.1456 47.7098C32.1734 47.115 31.9347 46.5387 31.4944 46.1378L29.1237 43.9787C28.2525 43.1853 28.2525 41.8147 29.1237 41.0213L31.4944 38.8622C31.9347 38.4613 32.1734 37.885 32.1456 37.2902L31.9959 34.0871C31.9409 32.9101 32.9101 31.9409 34.0871 31.9959L37.2902 32.1456C37.885 32.1734 38.4613 31.9347 38.8622 31.4944L41.0213 29.1237Z" stroke="white" stroke-width="5"/>
<path d="M41.0213 29.1237C41.8147 28.2525 43.1853 28.2525 43.9787 29.1237L46.1378 31.4944C46.5387 31.9347 47.115 32.1734 47.7098 32.1456L50.9129 31.9959C52.0899 31.9409 53.0591 32.9101 53.0041 34.0871L52.8544 37.2902C52.8266 37.885 53.0653 38.4613 53.5056 38.8622L55.8763 41.0213C56.7475 41.8147 56.7475 43.1853 55.8763 43.9787L53.5056 46.1378C53.0653 46.5387 52.8266 47.115 52.8544 47.7098L53.0041 50.9129C53.0591 52.0899 52.0899 53.0591 50.9129 53.0041L47.7098 52.8544C47.115 52.8266 46.5387 53.0653 46.1378 53.5056L43.9787 55.8763C43.1853 56.7475 41.8147 56.7475 41.0213 55.8763L38.8622 53.5056C38.4613 53.0653 37.885 52.8266 37.2902 52.8544L34.0871 53.0041C32.9101 53.0591 31.9409 52.0899 31.9959 50.9129L32.1456 47.7098C32.1734 47.115 31.9347 46.5387 31.4944 46.1378L29.1237 43.9787C28.2525 43.1853 28.2525 41.8147 29.1237 41.0213L31.4944 38.8622C31.9347 38.4613 32.1734 37.885 32.1456 37.2902L31.9959 34.0871C31.9409 32.9101 32.9101 31.9409 34.0871 31.9959L37.2902 32.1456C37.885 32.1734 38.4613 31.9347 38.8622 31.4944L41.0213 29.1237Z" stroke="url(#paint1_linear_1159_4705)" stroke-width="5"/>
<path d="M38.4102 42.5L41.1374 45.2273L46.592 39.7727" stroke="white" stroke-width="5" stroke-linecap="round" stroke-linejoin="round"/>
<path d="M38.4102 42.5L41.1374 45.2273L46.592 39.7727" stroke="url(#paint2_linear_1159_4705)" stroke-width="5" stroke-linecap="round" stroke-linejoin="round"/>
<path d="M22.5 30C28.0228 30 32.5 25.5228 32.5 20C32.5 14.4772 28.0228 10 22.5 10C16.9772 10 12.5 14.4772 12.5 20C12.5 25.5228 16.9772 30 22.5 30Z" stroke="white" stroke-width="5" stroke-linecap="round" stroke-linejoin="round"/>
<path d="M22.5 30C28.0228 30 32.5 25.5228 32.5 20C32.5 14.4772 28.0228 10 22.5 10C16.9772 10 12.5 14.4772 12.5 20C12.5 25.5228 16.9772 30 22.5 30Z" stroke="url(#paint3_linear_1159_4705)" stroke-width="5" stroke-linecap="round" stroke-linejoin="round"/>
<defs>
<linearGradient id="paint0_linear_1159_4705" x1="26.4336" y1="39" x2="1.85795" y2="39" gradientUnits="userSpaceOnUse">
<stop stop-color="#00D1FF"/>
<stop offset="1" stop-color="#306FE0"/>
</linearGradient>
<linearGradient id="paint1_linear_1159_4705" x1="64.2434" y1="41" x2="22.1136" y2="41" gradientUnits="userSpaceOnUse">
<stop stop-color="#00D1FF"/>
<stop offset="1" stop-color="#306FE0"/>
</linearGradient>
<linearGradient id="paint2_linear_1159_4705" x1="46.318" y1="37.0467" x2="38.6581" y2="44.7066" gradientUnits="userSpaceOnUse">
<stop stop-color="#00D1FF"/>
<stop offset="1" stop-color="#306FE0"/>
</linearGradient>
<linearGradient id="paint3_linear_1159_4705" x1="36.9956" y1="19" x2="8.90909" y2="19" gradientUnits="userSpaceOnUse">
<stop stop-color="#00D1FF"/>
<stop offset="1" stop-color="#306FE0"/>
</linearGradient>
</defs>
</svg>
