<svg width="155" height="86" viewBox="0 0 155 86" fill="none" xmlns="http://www.w3.org/2000/svg">
<path fill-rule="evenodd" clip-rule="evenodd" d="M45.5974 0.754883H152.03H154.79V3.43703V15.3318V18.0139H152.03H137.511V69.3245V71.6568C136.551 70.9571 134.871 70.0242 134.871 70.0242V67.8085V15.4484H152.03V3.43703H45.5974L44.9975 46.3513V51.2492L11.3998 8.80132C12.2397 8.21824 13.1996 7.75178 14.1596 7.28532L41.9977 42.3864L42.4776 3.67026L42.4777 3.67019C43.6776 2.50408 44.3975 1.8044 45.5974 0.754883ZM105.833 27.3426C105.833 32.1238 103.553 36.322 99.4732 39.2373C105.113 42.1527 108.353 47.517 108.353 54.5139C108.353 66.292 94.9136 71.6563 82.4344 71.6563H75.1149L72.4751 69.0908V68.9742H82.4344C91.3138 68.9742 105.713 65.4757 105.713 54.3973C105.713 46.2342 100.313 41.3364 92.9937 39.8204V39.7038C98.7533 37.838 103.193 33.6398 103.193 27.4592C103.193 16.4974 92.6337 12.8823 82.3144 12.8823H72.5951L74.6349 10.2002H82.3144C97.0734 10.2002 105.833 16.614 105.833 27.3426ZM60.2365 68.8581C59.2766 69.791 58.1966 70.724 57.1167 71.6569L57.5967 10.3174C58.6766 11.2503 59.7565 12.2998 60.7165 13.3494L60.2365 68.8581ZM0.600935 18.1292C1.56087 17.0797 2.64079 16.1468 3.72072 15.2139L3.12076 66.8743C2.04084 65.9414 0.960911 64.8919 0.000976562 63.7257L0.600935 18.1292ZM49.1968 75.3878L15.2391 32.5901V37.4879L14.7592 82.8512C15.7191 84.0173 16.799 85.0668 17.879 85.9998L18.2389 41.4528L46.317 76.9038C47.2769 76.4373 48.2369 75.9709 49.1968 75.3878ZM90.5947 28.6236C90.5947 24.0756 87.7149 21.9766 82.5553 21.9766H72.8359V35.1541H82.5553C87.7149 35.2707 90.5947 33.1716 90.5947 28.6236ZM75.5957 24.6587H82.5553C87.4749 24.6587 87.9549 26.7578 87.9549 28.6236C87.9549 30.4895 87.5949 32.5885 82.5553 32.5885H75.5957V24.6587ZM82.6749 59.5283H72.9556V44.6016H82.6749C88.5545 44.6016 92.5142 45.6511 92.5142 52.0649C92.5142 58.4787 88.5545 59.5283 82.6749 59.5283ZM82.5549 47.1671H75.5954V56.7295H82.5549C88.6745 56.7295 89.6344 55.5634 89.6344 51.9483C89.6344 48.3332 88.6745 47.1671 82.5549 47.1671ZM122.393 67.3416V13.582H106.194L108.714 16.2642H119.753V67.3416V70.0237H122.393V67.3416Z" fill="white"/>
</svg>
