<svg width="22" height="20" viewBox="0 0 22 20" fill="none" xmlns="http://www.w3.org/2000/svg">
<path d="M11.3108 6.26834C11.2572 6.6717 11.2831 7.19511 11.5119 7.50244C12.3491 8.63009 13.2843 9.69211 14.1885 10.7741C14.553 11.2095 14.977 11.3264 15.6005 11.2431C16.8323 11.0799 18.101 10.9318 19.3253 11.0495C20.0359 11.1175 20.92 11.5609 21.3231 12.1067C22.1024 13.1623 21.2946 14.4692 19.8935 14.6565C18.1857 14.8846 16.5817 14.5661 15.1639 13.6265C14.5756 13.2367 14.0309 13.1903 13.3966 13.3896C12.8351 13.5665 12.2745 13.7433 11.7038 13.8922C9.25605 14.5284 6.996 15.3272 5.78008 17.7329C5.39544 18.494 4.55075 19.1015 3.79488 19.6177C2.83538 20.2739 1.58594 20.0443 0.971697 19.2639C0.417787 18.5597 0.493206 17.5969 1.4703 16.8734C2.71388 15.953 4.14097 15.2623 5.45326 14.4204C5.90158 14.1323 6.38845 13.7529 6.60298 13.304C7.45773 11.5184 8.2446 9.70092 8.977 7.86578C9.13203 7.47843 9.03147 6.94381 8.90326 6.51724C8.5689 5.4064 8.10968 4.32836 7.79209 3.21432C7.65633 2.73253 7.66639 2.1803 7.74851 1.6809C7.91778 0.64529 8.7675 -0.0141744 9.78063 0.000231336C10.777 0.0154374 11.5806 0.72052 11.739 1.76174C11.8019 2.1747 11.4558 5.18471 11.3108 6.26834ZM8.74656 13.0679C10.182 12.6221 11.4306 12.2339 12.7513 11.8234C11.9452 10.899 11.2128 10.0579 10.4125 9.13909C9.846 10.4756 9.33482 11.6801 8.74656 13.0679ZM9.7513 1.76094H9.74627C9.6013 1.75293 9.48147 1.86818 9.49236 2.00583C9.55605 2.79815 9.66248 3.59047 9.72616 4.38199C9.91555 4.37478 9.78817 4.37798 9.97756 4.37158V1.98983C9.97756 1.86898 9.87868 1.76814 9.7513 1.76094ZM17.4181 12.7805C17.4147 12.8814 17.496 12.9654 17.6016 12.971C18.2317 13.0046 18.8619 13.0383 19.4921 13.0719C19.6052 13.0783 19.7024 12.9942 19.7074 12.8862C19.7125 12.7789 19.6253 12.6877 19.513 12.6829C18.8829 12.6557 18.2519 12.6277 17.6217 12.6005C17.5128 12.5957 17.4214 12.6765 17.4181 12.7805Z" fill="#8EF0EF"/>
</svg>
