<svg width="240" height="60" viewBox="0 0 240 60" fill="none" xmlns="http://www.w3.org/2000/svg">
<path d="M30.0369 0C46.6331 0 60.0819 13.4331 60.0819 29.9988C60.0819 46.5675 46.6331 60 30.0369 60C13.4487 60 0 46.5669 0 29.9988C0 13.4331 13.4487 0 30.0369 0ZM30.0369 2.31812C14.7269 2.31812 2.32125 14.7094 2.32125 29.9994C2.32125 45.2881 14.7269 57.6819 30.0369 57.6819C45.3506 57.6819 57.7588 45.2881 57.7588 29.9988C57.7588 14.7094 45.3506 2.3175 30.0369 2.3175V2.31812ZM31.9525 8.44563C31.9525 8.44563 32.6437 9.70312 35.8675 9.12937C38.5337 8.65312 40.0094 9.34813 40.0094 10.2388C40.0094 10.2388 41.9062 10.4656 42.7519 11.0138C43.6 11.5619 42.7012 12.9313 42.7012 12.9313C42.5719 12.6794 42.3919 12.5313 41.8787 12.4188C41.8787 12.4188 39.8288 11.8919 39.115 13.2256C37.5569 13.3588 36.2106 14.2906 35.5775 15.5581C35.5431 15.6325 34.95 16.805 35.3188 19.1719C35.5112 20.4144 36.1262 21.4681 36.9994 22.3656C37.3806 22.7594 37.8556 23.0112 38.4325 22.9456C39.3437 22.84 40.1006 22.4038 40.7513 21.7606C41.1075 21.4069 41.2175 21.0044 40.9438 20.5412C40.9081 20.48 40.8869 20.41 40.8612 20.34C40.0556 18.3925 40.73 16.6694 42.0988 15.6494C43.1056 14.9019 44.2675 14.8131 45.4481 14.9806C53.2331 16.0769 53.4937 23.9406 53.4937 26.3662V27.0138C53.5 33.5325 53.6 38.1256 53.6488 39.0331C53.7269 40.4556 54.2231 40.7544 54.5387 40.9788C54.0431 41.3219 49.99 40.0475 49.0175 38.8387C48.9519 38.7581 48.8181 38.7244 48.7162 38.6969C46.3025 38.1356 46.2975 35.615 46.2513 34.8506C44.2313 34.8506 43.4494 32.6469 43.235 32.0731C43.0514 31.5589 42.9291 31.0248 42.8706 30.4819C42.8706 31.555 41.2831 32.4756 39.5744 30.765C39.5744 32.5244 37.4781 32.2131 36.4356 31.1712C36.3444 31.5275 35.7656 32.4337 35.7656 32.4337C36.9631 32.6512 37.5019 32.9137 38.0675 33.4088C39.3944 34.5731 39.545 36.5162 39.545 37.52C39.545 37.52 41.3719 39.3019 42.095 39.9625C42.3088 40.1619 42.5444 40.335 42.7794 40.5125C44.6531 38.4175 45.2763 39.2344 45.2744 39.2406C46.6606 38.6819 47.4275 39.6706 47.1244 40.1744C46.8006 39.8081 46.2769 39.9162 45.9613 40.1994C47.8325 40.515 47.3956 41.8869 46.8913 42.1744C46.8913 41.7806 46.7687 41.3431 46.1787 41.3025C46.2088 41.9081 45.8 42.0138 45.4119 42.0288C44.4837 42.0688 42.9344 42.1112 42.4619 42.5725C42.19 42.835 42.3219 43.6056 42.0312 43.8681C41.7894 44.0838 41.5331 44.0588 41.3975 44.0606C41.3531 44.3444 41.4375 44.6637 41.7981 45.0406C40.45 45.1506 39.4413 43.9656 40.1088 43.3325C40.3888 43.0681 41.3294 42.1763 41.3781 41.7875C41.44 41.375 41.0031 40.9106 40.7 40.6419C40.3085 40.2978 39.9053 39.9672 39.4912 39.6506L38.6631 39.0119C38.4513 38.8523 38.2276 38.7094 37.9938 38.5844C37.8897 38.5272 37.7754 38.4912 37.6574 38.4785C37.5394 38.4659 37.42 38.4768 37.3063 38.5106C36.7894 38.6712 36.7956 38.6587 36.6625 38.57C36.1538 38.2356 35.2337 37.4819 33.32 37.27C33.4469 37.3506 33.5363 37.435 33.61 37.5344C33.7119 37.6781 33.7863 37.85 33.8944 38.0831C34.0194 38.3475 34.1144 38.6187 34.2269 38.8831C35.4644 41.8081 36.6894 44.6806 37.9238 47.6062C38.3325 48.5737 37.9675 49.4206 36.97 49.8862C36.2425 50.225 35.4138 50.0425 34.9263 49.34C35.0663 49.8225 35.1325 50.24 34.935 50.6419C34.74 51.0437 34.4244 51.3319 34.0106 51.5075C33.6125 51.6831 33.1419 51.745 32.7075 51.6575C32.2638 51.5687 31.97 51.2762 31.7431 50.8469C31.7044 51.8019 31.075 52.5 30.0369 52.5C28.9981 52.5 28.3681 51.8019 28.3306 50.8469C28.1038 51.2769 27.8088 51.5687 27.3656 51.6575C26.9261 51.7401 26.4718 51.6878 26.0625 51.5075C25.6487 51.3319 25.3331 51.0437 25.1381 50.6419C24.9412 50.2394 25.0069 49.8244 25.1469 49.34C24.6594 50.0425 23.8306 50.225 23.1031 49.8862C22.105 49.4206 21.7406 48.5737 22.1494 47.6062C23.3831 44.6812 24.6081 41.8081 25.8462 38.8831C25.9587 38.6187 26.0538 38.3475 26.1788 38.0831C26.2869 37.8481 26.3594 37.6769 26.4606 37.5344C26.535 37.435 26.6238 37.3506 26.7531 37.27C24.8394 37.4794 23.9175 38.2356 23.4106 38.57C23.2775 38.6587 23.2838 38.6712 22.7669 38.5106C22.6531 38.4767 22.5337 38.4658 22.4157 38.4784C22.2977 38.4911 22.1834 38.5271 22.0794 38.5844C21.8481 38.7119 21.6112 38.8531 21.41 39.0119C20.7212 39.5475 20.0213 40.0662 19.3725 40.6419C19.07 40.9106 18.6331 41.3744 18.695 41.7875C18.7413 42.175 19.6844 43.0681 19.9638 43.3325C20.6325 43.9656 19.6231 45.1531 18.275 45.0406C18.6356 44.6637 18.7181 44.3444 18.6737 44.0606C18.54 44.0588 18.2837 44.0838 18.0419 43.8681C17.7494 43.6056 17.8806 42.835 17.6119 42.5725C17.1369 42.1112 15.5869 42.0688 14.6613 42.0288C14.2738 42.0138 13.8644 41.9081 13.8938 41.3025C13.3025 41.3406 13.1812 41.7787 13.1812 42.1744C12.675 41.8869 12.2406 40.5131 14.1125 40.1994C13.7963 39.9162 13.2706 39.8081 12.9488 40.1744C12.6456 39.6706 13.4125 38.6819 14.7988 39.2406C14.7944 39.2344 15.42 38.4194 17.2937 40.5131C17.5287 40.335 17.7644 40.1619 17.9781 39.9631C18.7013 39.3044 20.5281 37.5194 20.5281 37.5194C20.5281 36.5187 20.6781 34.5756 22.0031 33.4094C22.5719 32.9137 23.1094 32.6512 24.3075 32.4331C24.3075 32.4331 23.7288 31.5269 23.6375 31.1719C22.595 32.2156 20.4987 32.5244 20.4987 30.7656C18.79 32.4737 17.2025 31.555 17.2025 30.4819C17.1441 31.0248 17.0217 31.5589 16.8381 32.0731C16.6238 32.6469 15.8419 34.8506 13.8219 34.8506C13.775 35.615 13.7706 38.1338 11.3569 38.6969C11.255 38.7219 11.1213 38.7581 11.0556 38.8387C10.0806 40.0494 6.03063 41.3219 5.53188 40.9788C5.84813 40.7519 6.34438 40.4556 6.4225 39.0331C6.47313 38.0956 6.57687 33.2269 6.57687 26.3662L6.5775 26.2062C6.59125 23.6125 7.00375 16.0538 14.625 14.9806C15.8063 14.8131 16.9675 14.9019 17.9738 15.6494C19.3431 16.6694 20.0175 18.3931 19.2119 20.34C19.1869 20.41 19.165 20.48 19.1294 20.5412C18.8556 21.005 18.9663 21.4069 19.3219 21.76C19.9725 22.4038 20.7294 22.84 21.6406 22.9456C22.2175 23.0112 22.6925 22.7594 23.0737 22.3656C23.9469 21.4681 24.5406 20.4119 24.755 19.1719C25.1594 16.8156 24.53 15.6325 24.4963 15.5581C23.8625 14.2906 22.5162 13.3588 20.9587 13.2256C20.2444 11.8919 18.1944 12.4194 18.1944 12.4194C17.6819 12.5319 17.5012 12.6794 17.3694 12.9319C17.3694 12.9319 16.4731 11.5619 17.3194 11.0131C18.1669 10.4656 20.0637 10.2388 20.0637 10.2388C20.0637 9.3475 21.5387 8.65312 24.2037 9.12937C27.4275 9.70312 28.1206 8.44563 28.1206 8.44563C28.2537 9.98688 27.0756 10.7806 26.6981 10.9969C27.9213 12.3219 29.6294 14.97 30.0369 18.7269C30.4431 14.97 32.1519 12.3219 33.3744 10.9969C32.9956 10.7806 31.8194 9.98688 31.9525 8.44563ZM97.49 25.5137C100.606 25.5137 102.768 27.0481 102.768 30.7525V38.1025C102.768 39.615 103.092 39.9688 103.713 39.9688C103.956 39.9607 104.196 39.9202 104.427 39.8481L104.603 40.5619C103.658 41.0356 102.768 41.1269 102.38 41.1269C101.402 41.1269 100.782 40.6825 100.542 39.8206L100.366 39.1731C98.7637 40.445 97.0131 41.1269 95.5594 41.1269C92.8569 41.1269 91.1038 39.7019 91.1038 37.2131C91.1038 34.5456 93.0963 33.2987 95.8244 32.7994L98.8469 32.2344C99.8594 32.0562 100.398 31.76 100.398 31.0219C100.398 27.7931 99.0312 26.9637 96.7756 26.9637C95.0269 26.9637 93.7175 27.4675 92.7694 29.3956H92.4113V27.5519C93.5713 26.1331 95.7031 25.5137 97.49 25.5137ZM186.831 25.5137C188.376 25.5137 190.062 25.8075 191.964 26.815L191.224 29.0338H190.866C189.827 27.3463 188.376 26.665 186.744 26.665C183.269 26.665 181.61 30.0138 181.61 33.2713C181.61 37.0331 183.682 39.9669 187.364 39.9669C188.586 39.9669 189.681 39.7913 191.4 37.9219L191.669 38.2481L191.311 39.7C189.88 40.65 188.286 41.125 186.447 41.125C181.816 41.125 178.791 37.8944 178.791 33.3313C178.791 28.5619 182.055 25.5137 186.831 25.5137ZM169.352 25.5137C173.862 25.5137 176.684 28.7712 176.684 33.2125C176.684 37.7487 173.738 41.125 169.088 41.125C164.519 41.125 161.667 37.7781 161.667 33.6294C161.667 28.7119 164.811 25.5137 169.352 25.5137ZM201.816 25.5137C203.359 25.5137 205.048 25.8075 206.947 26.815L206.197 29.0338H205.845C204.811 27.3463 203.357 26.665 201.726 26.665C198.251 26.665 196.589 30.0138 196.589 33.2713C196.589 37.0331 198.673 39.9669 202.348 39.9669C203.558 39.9669 204.66 39.7913 206.379 37.9219L206.642 38.2481L206.29 39.7C204.868 40.65 203.261 41.125 201.426 41.125C196.799 41.125 193.774 37.8944 193.774 33.3313C193.774 28.5619 197.041 25.5137 201.816 25.5137ZM223.204 25.8075C222.973 27.9538 222.934 31.5044 222.931 33.1338V33.3012C222.931 34.5456 222.965 38.5462 223.204 40.7988C222.752 40.7416 222.296 40.7126 221.839 40.7119C221.322 40.7108 220.806 40.7398 220.292 40.7988C220.523 38.6125 220.561 34.78 220.563 33.4175V33.3012C220.563 31.7575 220.529 29.8675 220.508 29.2413C218.484 31.2881 213.141 38.2819 211.456 40.7988C211.174 40.7382 210.886 40.7091 210.598 40.7119C210.417 40.7119 209.883 40.765 209.646 40.7988C209.876 38.6125 209.913 34.78 209.914 33.4175V33.3012C209.914 31.79 209.883 28.0306 209.646 25.8075C210.152 25.8375 210.801 25.8969 211.157 25.8969C211.483 25.8969 212.104 25.8375 212.554 25.8075C212.333 27.8769 212.295 31.2531 212.291 32.9525V33.3012C212.291 34.5456 212.316 36.2919 212.344 37.1238C213.978 35.1406 219.794 27.7638 221.191 25.8075C221.507 25.865 221.716 25.8969 222.075 25.8969C222.251 25.8969 222.872 25.8375 223.204 25.8075ZM240 25.8075C239.779 27.9538 239.74 31.5044 239.737 33.1338V33.3012C239.737 34.5456 239.771 38.5462 240 40.7988C239.547 40.7414 239.091 40.7123 238.635 40.7119C238.133 40.7119 237.535 40.7419 237.096 40.7988C237.327 38.6125 237.357 34.78 237.359 33.4175V33.3012C237.359 31.7575 237.334 29.8675 237.306 29.2413C235.288 31.2881 229.938 38.2819 228.249 40.7988C227.969 40.7376 227.683 40.7085 227.397 40.7119C227.217 40.7119 226.682 40.765 226.452 40.7988C226.683 38.5462 226.714 34.5456 226.714 33.3012C226.714 31.79 226.683 28.0306 226.452 25.8075C226.952 25.8375 227.601 25.8969 227.956 25.8969C228.283 25.8969 228.908 25.8375 229.353 25.8075C229.116 28.0306 229.091 31.76 229.091 33.3012C229.091 34.5456 229.116 36.2919 229.144 37.1238C230.777 35.1406 236.587 27.7638 237.982 25.8075C238.309 25.865 238.518 25.8969 238.874 25.8969C239.051 25.8969 239.678 25.8375 240 25.8075ZM136.704 25.8075L129.614 32.1475C130.509 33.2125 135.219 38.5187 137.353 40.7988C136.556 40.7419 135.993 40.7119 135.577 40.7119C135.041 40.7119 134.239 40.7419 133.618 40.7988C132.521 39.08 129.167 35.1406 127.332 33.1237H126.853V33.3225C126.856 34.6712 126.892 38.665 127.109 40.7988C126.658 40.741 126.205 40.712 125.751 40.7119C125.253 40.7119 124.659 40.7419 124.205 40.7988C124.434 38.6787 124.478 35.0106 124.482 33.5488V33.3012C124.482 31.79 124.449 28.0306 124.205 25.8075C124.716 25.835 125.371 25.8969 125.727 25.8969C126.046 25.8969 126.671 25.8375 127.109 25.8075C126.88 28.0306 126.853 31.79 126.853 32.3275H127.332C128.309 32.3275 133.321 26.6356 133.799 25.8075C134.211 25.8375 134.89 25.8969 135.246 25.8969C135.549 25.8969 136.261 25.8375 136.704 25.8075ZM120.18 25.8075C119.949 27.9538 119.913 31.5044 119.911 33.1338V33.3012C119.911 34.5456 119.941 38.5462 120.18 40.7988C119.727 40.7412 119.27 40.7122 118.813 40.7119C118.311 40.7119 117.715 40.7419 117.274 40.7988C117.508 38.5462 117.539 34.5456 117.539 33.6019C116.233 33.5081 114.453 33.3919 113.771 33.3919C112.963 33.3919 110.983 33.445 109.79 33.5356C109.79 34.5456 109.824 38.5444 110.059 40.7988C109.607 40.7414 109.152 40.7124 108.696 40.7119C108.192 40.7119 107.598 40.7419 107.151 40.7988C107.372 38.6787 107.412 35.0106 107.416 33.5488V33.3012C107.416 31.79 107.386 28.0306 107.151 25.8075C107.656 25.835 108.312 25.8969 108.671 25.8969C108.997 25.8969 109.616 25.8375 110.061 25.8075C109.826 28.0575 109.792 31.79 109.792 31.9381C111.041 31.9994 112.846 32.0606 113.805 32.0606C114.782 32.0606 116.651 32.0012 117.541 31.9381C117.541 31.7625 117.51 28.0306 117.276 25.8075C117.772 25.8375 118.429 25.8969 118.783 25.8969C119.114 25.8969 119.735 25.8375 120.18 25.8075ZM75.0419 19.2562C76.9406 19.3475 80.0819 19.5231 80.7706 19.5231C82.4263 19.5231 85.805 19.375 87.7356 19.2581C87.6858 19.6118 87.6562 19.968 87.6469 20.325C87.6469 20.5306 87.7081 21.0069 87.7356 21.3312C86.0125 21.0937 83.1663 20.9181 82.2819 20.9181C81.6612 20.9181 79.2531 20.975 77.9494 21.0931V28.5344H79.4606C82.5512 28.5344 89.05 29.125 89.05 34.4863C89.05 38.8406 85.3981 40.8263 80.595 40.7969C80.0562 40.7969 78.0431 40.7094 76.7587 40.7094C76.2012 40.7094 75.5188 40.7394 75.0419 40.7969C75.2237 37.5344 75.2794 33.0325 75.2794 29.2981V28.8319C75.2763 25.4981 75.2463 20.81 75.0419 19.2569V19.2562ZM147.461 19.2562C148.445 19.2837 149.78 19.3475 150.462 19.3475C151.495 19.3475 152.836 19.2581 153.602 19.2581C159.091 19.2581 161.232 20.9181 161.232 24.6475C161.232 29.4825 157.163 31.0194 152.336 31.0194C152.068 31.0194 150.935 30.9619 150.369 30.9006V36.0231C150.369 37.505 150.429 39.315 150.611 40.7969C150.108 40.7392 149.602 40.71 149.096 40.7094C148.557 40.7094 147.936 40.7394 147.461 40.7969C147.635 37.6844 147.698 33.4375 147.702 29.8119V28.8312C147.7 25.4975 147.664 20.8094 147.461 19.2562ZM169.263 26.665C166.059 26.665 164.488 30.0138 164.488 33.5381C164.488 36.8869 165.883 39.9669 169.026 39.9669C172.053 39.9669 173.865 37.0625 173.865 33.0938C173.865 29.8931 172.616 26.665 169.263 26.665ZM100.398 33.1525L98.4356 33.4469C96.2987 33.775 93.9231 34.5137 93.9231 36.7706C93.9231 38.4875 94.8769 39.4056 96.8013 39.4056C97.99 39.4056 99.1775 38.9888 100.398 37.7169V33.1531V33.1525ZM77.9494 30.0981V39.0794C78.7212 39.1094 79.6369 39.1394 80.47 39.1394C83.9737 39.1394 86.0125 37.5069 86.0125 34.455C86.0125 31.1675 83.5856 30.0987 77.95 30.0987L77.9494 30.0981ZM153.012 20.9181C152.512 20.9181 150.787 20.9456 150.369 21.0069V29.3281C150.732 29.3938 151.321 29.4506 151.618 29.4506C155.772 29.4506 158.205 27.7912 158.205 24.6475C158.205 21.7162 155.891 20.9181 153.013 20.9181H153.012Z" fill="white"/>
</svg>
