<svg width="35" height="35" viewBox="0 0 35 35" fill="none" xmlns="http://www.w3.org/2000/svg">
<circle cx="17.5" cy="17.5" r="17.5" fill="#001471"/>
<path fill-rule="evenodd" clip-rule="evenodd" d="M25.6447 13.4147C25.4492 12.6834 24.8732 12.1073 24.1418 11.9118C22.8161 11.5566 17.4999 11.5566 17.4999 11.5566C17.4999 11.5566 12.1839 11.5566 10.8582 11.9118C10.1268 12.1073 9.55078 12.6834 9.35529 13.4147C9 14.7406 9 17.5065 9 17.5065C9 17.5065 9 20.2726 9.35529 21.5984C9.55078 22.3297 10.1268 22.9059 10.8582 23.1013C12.1839 23.4566 17.4999 23.4566 17.4999 23.4566C17.4999 23.4566 22.8161 23.4566 24.1418 23.1013C24.8732 22.9059 25.4492 22.3297 25.6447 21.5984C26 20.2726 26 17.5065 26 17.5065C26 17.5065 26 14.7406 25.6447 13.4147Z" fill="white"/>
<path fill-rule="evenodd" clip-rule="evenodd" d="M15.7998 20.0561L20.2163 17.5062L15.7998 14.9561V20.0561Z" fill="#001471"/>
</svg>
